<svg width="250" height="200" viewBox="0 0 250 200" fill="none" xmlns="http://www.w3.org/2000/svg">
<rect width="250" height="200" fill="white"/>
<path fill-rule="evenodd" clip-rule="evenodd" d="M207 65C210.866 65 214 68.134 214 72C214 75.866 210.866 79 207 79H167C170.866 79 174 82.134 174 86C174 89.866 170.866 93 167 93H189C192.866 93 196 96.134 196 100C196 103.866 192.866 107 189 107H178.826C173.952 107 170 110.134 170 114C170 116.577 172 118.911 176 121C179.866 121 183 124.134 183 128C183 131.866 179.866 135 176 135H93C89.134 135 86 131.866 86 128C86 124.134 89.134 121 93 121H54C50.134 121 47 117.866 47 114C47 110.134 50.134 107 54 107H94C97.866 107 101 103.866 101 100C101 96.134 97.866 93 94 93H69C65.134 93 62 89.866 62 86C62 82.134 65.134 79 69 79H109C105.134 79 102 75.866 102 72C102 68.134 105.134 65 109 65H207ZM207 93C210.866 93 214 96.134 214 100C214 103.866 210.866 107 207 107C203.134 107 200 103.866 200 100C200 96.134 203.134 93 207 93Z" fill="#F5F7F9"/>
<path fill-rule="evenodd" clip-rule="evenodd" d="M153.671 64.0006L162.973 131.843L163.809 138.65C164.078 140.842 162.519 142.838 160.326 143.107L101.766 150.298C99.5733 150.567 97.5776 149.008 97.3083 146.815L88.2926 73.3873C88.158 72.291 88.9376 71.2931 90.0339 71.1585C90.0408 71.1576 90.0478 71.1568 90.0547 71.156L94.9131 70.6111M98.8421 70.1698L103.429 69.6553L98.8421 70.1698Z" fill="white"/>
<path d="M154.39 63.9021C154.335 63.5054 153.97 63.2279 153.573 63.2823C153.176 63.3367 152.899 63.7023 152.953 64.099L154.39 63.9021ZM162.973 131.843L163.693 131.755L163.691 131.745L162.973 131.843ZM163.809 138.65L164.529 138.561L163.809 138.65ZM160.326 143.107L160.415 143.827L160.326 143.107ZM101.766 150.298L101.854 151.017L101.766 150.298ZM97.3083 146.815L98.0279 146.726L97.3083 146.815ZM90.0547 71.156L90.1355 71.8765L90.0547 71.156ZM94.9939 71.3315C95.3918 71.2869 95.6782 70.9282 95.6336 70.5302C95.5889 70.1323 95.2302 69.8459 94.8323 69.8906L94.9939 71.3315ZM98.7613 69.4494C98.3634 69.494 98.077 69.8527 98.1216 70.2507C98.1663 70.6486 98.525 70.935 98.9229 70.8903L98.7613 69.4494ZM103.51 70.3758C103.908 70.3311 104.194 69.9724 104.15 69.5745C104.105 69.1766 103.746 68.8902 103.348 68.9348L103.51 70.3758ZM152.953 64.099L162.255 131.942L163.691 131.745L154.39 63.9021L152.953 64.099ZM162.254 131.932L163.089 138.738L164.529 138.561L163.693 131.755L162.254 131.932ZM163.089 138.738C163.31 140.533 162.033 142.167 160.238 142.388L160.415 143.827C163.005 143.509 164.847 141.151 164.529 138.561L163.089 138.738ZM160.238 142.388L101.678 149.578L101.854 151.017L160.415 143.827L160.238 142.388ZM101.678 149.578C99.8824 149.798 98.2484 148.522 98.0279 146.726L96.5887 146.903C96.9068 149.493 99.2643 151.335 101.854 151.017L101.678 149.578ZM98.0279 146.726L89.0122 73.299L87.573 73.4757L96.5887 146.903L98.0279 146.726ZM89.0122 73.299C88.9263 72.6 89.4234 71.9639 90.1223 71.8781L89.9456 70.4389C88.4518 70.6223 87.3896 71.9819 87.573 73.4757L89.0122 73.299ZM90.1223 71.8781C90.1267 71.8775 90.1311 71.877 90.1355 71.8765L89.9739 70.4356C89.9644 70.4366 89.955 70.4377 89.9456 70.4389L90.1223 71.8781ZM90.1355 71.8765L94.9939 71.3315L94.8323 69.8906L89.9739 70.4356L90.1355 71.8765ZM98.9229 70.8903L103.51 70.3758L103.348 68.9348L98.7613 69.4494L98.9229 70.8903Z" fill="#F38708"/>
<path fill-rule="evenodd" clip-rule="evenodd" d="M151.14 68.2713L159.559 129.755L160.317 135.923C160.561 137.91 159.167 139.717 157.203 139.958L104.761 146.397C102.797 146.638 101.008 145.222 100.764 143.235L92.5115 76.0251C92.4334 75.3893 92.8856 74.8105 93.5215 74.7324L100.843 73.8335" fill="#ECEFF4"/>
<path d="M107.397 52.3193C107.397 51.4384 108.111 50.7243 108.992 50.7243H156.924C157.347 50.7243 157.753 50.8922 158.052 51.1911L172.479 65.6098C172.779 65.909 172.947 66.3148 172.947 66.738V131.679C172.947 132.56 172.233 133.274 171.352 133.274H108.992C108.111 133.274 107.397 132.56 107.397 131.679V52.3193Z" fill="white" stroke="#F38708" stroke-width="1.45"/>
<path d="M156.672 52.403V64.0001C156.672 65.657 158.015 67.0001 159.672 67.0001H167.605" stroke="#F38708" stroke-width="1.45" stroke-linecap="round" stroke-linejoin="round"/>
<path d="M118 118.002H144M118 67.0017H144H118ZM118 79.0017H161H118ZM118 92.0017H161H118ZM118 105.002H161H118Z" stroke="#F38708" stroke-width="1.45" stroke-linecap="round" stroke-linejoin="round"/>
</svg>
