<svg width="188" height="60" viewBox="0 0 188 60" fill="none" xmlns="http://www.w3.org/2000/svg">
<path d="M51.5574 34.9446C51.4756 38.0148 50.838 41.0447 49.6755 43.8875C44.8744 44.6134 40.2862 46.3658 36.2235 49.0251L35.8471 49.2736C32.0398 51.8381 28.7894 55.1448 26.2907 58.9956L25.9707 59.4999C25.9293 59.4397 25.8879 59.372 25.8503 59.308C23.3619 55.3749 20.0942 51.9932 16.2487 49.3714C16.1245 49.2886 16.0041 49.202 15.8723 49.123C11.844 46.449 7.28663 44.6748 2.51067 43.9214C1.33105 41.0708 0.683029 38.0284 0.598633 34.9446L0.847047 34.9709C6.22067 35.5435 11.3772 37.4026 15.8799 40.3909C16.0041 40.4699 16.1245 40.5565 16.2562 40.6393C20.1017 43.2611 23.3694 46.6427 25.8578 50.5758C25.8955 50.6436 25.9369 50.7076 25.9783 50.7716L26.2982 50.2634C28.7981 46.4116 32.0482 43.1026 35.8546 40.5339L36.231 40.2892C40.7485 37.3278 45.9123 35.4972 51.2864 34.9521L51.5574 34.9446Z" fill="#173A01"/>
<path d="M51.249 31.4857C51.249 31.369 51.2264 31.2523 51.2151 31.1356V31.1093C50.7203 26.7834 49.1171 22.6586 46.5606 19.1342C44.0042 15.6097 40.581 12.805 36.6226 10.9915L36.2048 10.8033L35.9978 10.7167C35.8548 10.6527 35.7118 10.5963 35.565 10.5361C35.4182 10.4758 35.2187 10.3968 35.0418 10.3291L34.7821 10.235L34.3041 10.0694L33.7207 9.87363C31.4564 9.15866 29.1015 8.77083 26.7275 8.72189V6.81362C27.1769 6.8263 27.6244 6.75085 28.0448 6.59156C28.5063 6.4171 28.9253 6.14625 29.2738 5.79707C29.6223 5.44789 29.8924 5.02841 30.066 4.5666C29.7627 4.82671 29.4162 5.03179 29.0422 5.17258C28.4161 5.41253 27.7339 5.46615 27.078 5.32697C26.422 5.18778 25.8204 4.86175 25.3457 4.3882C24.8709 3.91466 24.5434 3.31384 24.4025 2.65826C24.2617 2.00267 24.3136 1.32034 24.552 0.693604C24.0922 1.08523 23.7424 1.58996 23.5372 2.15801C23.332 2.72606 23.2784 3.33779 23.3818 3.93286C23.4851 4.52792 23.7419 5.08576 24.1266 5.55134C24.5113 6.01692 25.0108 6.37415 25.5757 6.58779V8.72942C23.2281 8.7785 20.8992 9.15864 18.6578 9.85858L18.2814 9.97526L17.8335 10.1296L17.6942 10.1785L17.2614 10.3366C17.0958 10.3968 16.9377 10.4608 16.7759 10.5248L16.7307 10.5436L16.5877 10.6038C16.4409 10.6603 16.2978 10.7243 16.1511 10.7845C16.0043 10.8447 15.7747 10.9463 15.6015 11.0329C11.6589 12.8566 8.25176 15.6641 5.70799 19.1854C3.16423 22.7067 1.56938 26.8234 1.07684 31.1394V31.1808L1.04297 31.5572V31.9034H1.44194H1.56238H1.7995C6.56893 32.0157 11.2437 33.2579 15.4397 35.528L15.5451 35.5845L15.6204 35.6259L15.737 35.6899C15.768 35.7104 15.8007 35.7281 15.8349 35.7426L15.8801 35.7652L16.1021 35.8931L16.1661 35.9308H16.1473C16.1473 35.9308 23.0991 41.012 25.5569 44.5876L25.587 44.6365V44.6591C25.6247 44.7193 25.6661 44.7758 25.7075 44.836C25.7489 44.8963 25.7489 44.9 25.7752 44.9414L26.114 45.4608L26.4226 44.9264C26.433 44.9073 26.4456 44.8896 26.4602 44.8737V44.8436C26.5129 44.7608 26.5656 44.6817 26.6259 44.6027C29.0665 41.02 32.2826 38.0329 36.0355 35.863H36.0919L36.171 35.7915C36.2047 35.768 36.2399 35.7466 36.2764 35.7275L36.3629 35.6786L36.4269 35.6522L36.4533 35.7275C36.4533 35.6184 36.4758 35.6108 36.4909 35.6033L36.713 35.4979C36.733 35.4803 36.7559 35.4663 36.7807 35.4565C40.9896 33.1838 45.6766 31.9392 50.4585 31.8244H50.9027H51.1699V31.4932L51.249 31.4857ZM25.5757 42.7019C23.1165 39.4958 20.0366 36.8179 16.5199 34.828L16.4635 34.7677C16.742 27.4169 20.6865 21.519 25.5757 21.0899V42.7019ZM35.7645 34.828C32.2635 36.8326 29.1935 39.5099 26.7312 42.7057V21.0861C31.6242 21.519 35.565 27.4245 35.836 34.7715L35.7645 34.828Z" fill="#F38708"/>
<path d="M186.236 41.2612C183.929 41.2612 182.11 40.7288 180.779 39.6639C180.002 39.0649 179.281 38.3661 178.616 37.5674C177.972 36.7688 177.407 35.9923 176.919 35.238C176.431 34.4616 176.031 33.8293 175.721 33.3412C175.321 32.7644 174.933 32.2431 174.556 31.7772C174.201 31.3113 173.669 31.0784 172.959 31.0784C172.604 31.0784 172.426 31.2669 172.426 31.6441V36.3362C172.426 37.6229 172.515 38.5658 172.692 39.1648C172.737 39.3422 172.925 39.4975 173.258 39.6306C173.613 39.7637 173.99 39.8747 174.39 39.9634C174.789 40.03 175.088 40.0632 175.288 40.0632C175.377 40.0632 175.421 40.2518 175.421 40.629C175.421 40.8286 175.399 41.0172 175.355 41.1947C172.936 41.0616 171.361 40.995 170.629 40.995C170.03 40.995 169.354 41.0061 168.599 41.0283C167.867 41.0505 167.279 41.0837 166.836 41.1281L166.17 41.1947C166.104 41.0837 166.07 40.8841 166.07 40.5957C166.07 40.2407 166.104 40.0632 166.17 40.0632C166.37 40.0632 166.636 40.03 166.969 39.9634C167.302 39.8969 167.612 39.8081 167.901 39.6972C168.211 39.5863 168.389 39.4643 168.433 39.3311C168.566 38.9318 168.633 37.9224 168.633 36.3029V23.7241C168.633 22.4595 168.566 21.5499 168.433 20.9953C168.389 20.8622 168.211 20.7402 167.901 20.6293C167.612 20.4962 167.29 20.3852 166.935 20.2965C166.603 20.2078 166.348 20.1634 166.17 20.1634C166.081 20.1634 166.037 19.997 166.037 19.6642C166.037 19.3315 166.081 19.1318 166.17 19.0652C168.544 19.1318 170.019 19.1651 170.596 19.1651C171.683 19.1429 172.526 19.1318 173.125 19.1318C173.724 19.1318 174.179 19.1318 174.489 19.1318C174.8 19.1096 175.066 19.0985 175.288 19.0985C176.464 19.0985 177.617 19.3093 178.749 19.7308C179.88 20.1523 180.812 20.7957 181.544 21.6609C182.299 22.5261 182.676 23.6242 182.676 24.9553C182.676 25.754 182.498 26.5305 182.143 27.2847C181.788 28.039 181.311 28.7046 180.712 29.2814C180.113 29.8582 179.437 30.3019 178.682 30.6125C178.505 30.679 178.461 30.79 178.549 30.9453C179.17 32.0545 179.792 33.0861 180.413 34.04C181.034 34.9718 181.655 35.8259 182.276 36.6024C183.053 37.5564 183.885 38.3772 184.772 39.0649C185.682 39.7305 186.514 40.0632 187.268 40.0632C187.357 40.1742 187.401 40.3516 187.401 40.5957C187.401 40.8397 187.357 41.0394 187.268 41.1947C187.135 41.2169 186.98 41.228 186.802 41.228C186.647 41.2501 186.458 41.2612 186.236 41.2612ZM174.556 29.481H175.421C176.242 29.481 176.974 29.0928 177.617 28.3163C178.283 27.5399 178.616 26.5305 178.616 25.2881C178.616 22.271 177.329 20.7624 174.756 20.7624C173.802 20.7624 173.158 20.84 172.826 20.9953C172.559 21.1062 172.426 22.2599 172.426 24.4562V28.2831C172.426 28.7711 172.615 29.0928 172.992 29.2481C173.369 29.4034 173.89 29.481 174.556 29.481Z" fill="#173A01"/>
<path d="M140.007 41.1614C139.919 41.0727 139.874 40.9063 139.874 40.6622C139.874 40.2629 139.897 40.0632 139.941 40.0632C140.118 40.0632 140.373 40.0189 140.706 39.9301C141.061 39.8414 141.394 39.7305 141.705 39.5974C142.037 39.4421 142.248 39.2868 142.337 39.1315C142.559 38.7987 142.769 38.4216 142.969 38C143.169 37.5564 143.38 37.0683 143.601 36.5358L149.791 21.561C150.323 20.2078 150.734 19.4091 151.022 19.1651C151.178 19.0098 151.366 18.9321 151.588 18.9321C151.743 18.9321 151.876 18.9876 151.987 19.0985L158.976 36.5358C159.153 36.9574 159.319 37.3789 159.475 37.8004C159.652 38.1997 159.819 38.5879 159.974 38.9651C160.063 39.1869 160.262 39.3866 160.573 39.5641C160.883 39.7194 161.205 39.8414 161.538 39.9301C161.871 40.0189 162.126 40.0632 162.303 40.0632C162.392 40.0632 162.436 40.2629 162.436 40.6622C162.436 40.9063 162.414 41.0727 162.37 41.1614L158.177 40.9617L153.851 41.1614C153.762 41.0727 153.718 40.8619 153.718 40.5291C153.718 40.2185 153.762 40.0632 153.851 40.0632C154.117 40.0632 154.483 39.9967 154.949 39.8636C155.415 39.7305 155.692 39.5752 155.781 39.3977C155.847 39.2646 155.881 39.1204 155.881 38.9651C155.881 38.7432 155.825 38.4437 155.714 38.0666C155.603 37.6895 155.448 37.2236 155.248 36.669L154.084 33.5742C153.995 33.4854 153.917 33.4411 153.851 33.4411C153.496 33.4189 153.074 33.4078 152.586 33.4078C152.12 33.3856 151.588 33.3745 150.989 33.3745C149.791 33.3745 148.526 33.4078 147.195 33.4743C147.062 33.4743 146.996 33.5187 146.996 33.6074L145.731 36.7022C145.509 37.2569 145.343 37.7227 145.232 38.0999C145.143 38.4548 145.099 38.71 145.099 38.8653C145.099 39.1315 145.221 39.3533 145.465 39.5308C145.598 39.6195 145.798 39.7083 146.064 39.797C146.352 39.8636 146.641 39.9301 146.929 39.9967C147.218 40.0411 147.417 40.0632 147.528 40.0632C147.595 40.0854 147.628 40.2407 147.628 40.5291C147.628 40.6844 147.617 40.8175 147.595 40.9285C147.595 41.0172 147.584 41.0948 147.561 41.1614C146.741 41.117 146.064 41.0727 145.531 41.0283C145.021 40.9839 144.544 40.9617 144.101 40.9617C143.657 40.9617 143.124 40.9728 142.503 40.995C141.882 41.0172 141.05 41.0727 140.007 41.1614ZM150.39 31.5775C151.189 31.5775 152.098 31.5442 153.119 31.4777L153.185 31.3446L150.656 24.6891L147.927 31.3446C147.927 31.4333 147.95 31.4777 147.994 31.4777C148.77 31.5442 149.569 31.5775 150.39 31.5775Z" fill="#173A01"/>
<path d="M135.542 41.2612C133.234 41.2612 131.415 40.7288 130.084 39.6639C129.308 39.0649 128.587 38.3661 127.921 37.5674C127.278 36.7688 126.712 35.9923 126.224 35.238C125.736 34.4616 125.337 33.8293 125.026 33.3412C124.627 32.7644 124.238 32.2431 123.861 31.7772C123.506 31.3113 122.974 31.0784 122.264 31.0784C121.909 31.0784 121.732 31.2669 121.732 31.6441V36.3362C121.732 37.6229 121.82 38.5658 121.998 39.1648C122.042 39.3422 122.231 39.4975 122.563 39.6306C122.918 39.7637 123.296 39.8747 123.695 39.9634C124.094 40.03 124.394 40.0632 124.593 40.0632C124.682 40.0632 124.726 40.2518 124.726 40.629C124.726 40.8286 124.704 41.0172 124.66 41.1947C122.242 41.0616 120.667 40.995 119.935 40.995C119.336 40.995 118.659 41.0061 117.905 41.0283C117.173 41.0505 116.585 41.0837 116.141 41.1281L115.475 41.1947C115.409 41.0837 115.376 40.8841 115.376 40.5957C115.376 40.2407 115.409 40.0632 115.475 40.0632C115.675 40.0632 115.941 40.03 116.274 39.9634C116.607 39.8969 116.917 39.8081 117.206 39.6972C117.516 39.5863 117.694 39.4643 117.738 39.3311C117.871 38.9318 117.938 37.9224 117.938 36.3029V23.7241C117.938 22.4595 117.871 21.5499 117.738 20.9953C117.694 20.8622 117.516 20.7402 117.206 20.6293C116.917 20.4962 116.596 20.3852 116.241 20.2965C115.908 20.2078 115.653 20.1634 115.475 20.1634C115.387 20.1634 115.342 19.997 115.342 19.6642C115.342 19.3315 115.387 19.1318 115.475 19.0652C117.849 19.1318 119.324 19.1651 119.901 19.1651C120.988 19.1429 121.831 19.1318 122.43 19.1318C123.029 19.1318 123.484 19.1318 123.795 19.1318C124.105 19.1096 124.372 19.0985 124.593 19.0985C125.769 19.0985 126.923 19.3093 128.054 19.7308C129.186 20.1523 130.117 20.7957 130.85 21.6609C131.604 22.5261 131.981 23.6242 131.981 24.9553C131.981 25.754 131.803 26.5305 131.449 27.2847C131.094 28.039 130.617 28.7046 130.018 29.2814C129.419 29.8582 128.742 30.3019 127.988 30.6125C127.81 30.679 127.766 30.79 127.855 30.9453C128.476 32.0545 129.097 33.0861 129.718 34.04C130.339 34.9718 130.96 35.8259 131.582 36.6024C132.358 37.5564 133.19 38.3772 134.077 39.0649C134.987 39.7305 135.819 40.0632 136.573 40.0632C136.662 40.1742 136.706 40.3516 136.706 40.5957C136.706 40.8397 136.662 41.0394 136.573 41.1947C136.44 41.2169 136.285 41.228 136.107 41.228C135.952 41.2501 135.763 41.2612 135.542 41.2612ZM123.861 29.481H124.726C125.547 29.481 126.279 29.0928 126.923 28.3163C127.588 27.5399 127.921 26.5305 127.921 25.2881C127.921 22.271 126.634 20.7624 124.061 20.7624C123.107 20.7624 122.464 20.84 122.131 20.9953C121.865 21.1062 121.732 22.2599 121.732 24.4562V28.2831C121.732 28.7711 121.92 29.0928 122.297 29.2481C122.674 29.4034 123.196 29.481 123.861 29.481Z" fill="#173A01"/>
<path d="M100.294 41.1281C97.6321 41.1281 95.5356 40.3295 94.0048 38.7321C92.4741 37.1127 91.7087 34.517 91.7087 30.9453V23.6908C91.7087 22.2931 91.62 21.3614 91.4425 20.8955C91.3981 20.7624 91.2317 20.6404 90.9433 20.5294C90.6771 20.4185 90.3776 20.3298 90.0448 20.2632C89.7342 20.1745 89.4902 20.1301 89.3127 20.1301C89.224 20.1301 89.1796 19.9637 89.1796 19.631C89.1796 19.2982 89.2129 19.0985 89.2794 19.032L93.7053 19.2316C94.1268 19.2316 95.5467 19.1651 97.9648 19.032C97.987 19.1207 97.9981 19.2094 97.9981 19.2982C98.0203 19.3869 98.0314 19.4757 98.0314 19.5644C98.0314 19.9415 97.987 20.1301 97.8983 20.1301C97.7652 20.1301 97.5211 20.1745 97.1662 20.2632C96.8334 20.3298 96.5228 20.4185 96.2344 20.5294C95.946 20.6404 95.7907 20.7624 95.7685 20.8955C95.6798 21.2283 95.6132 21.6387 95.5689 22.1268C95.5245 22.6148 95.5023 23.1805 95.5023 23.8239V31.4777C95.5023 33.7627 95.9904 35.593 96.9665 36.9685C97.9648 38.3217 99.3403 38.9984 101.093 38.9984C102.801 38.9984 104.166 38.4437 105.186 37.3345C106.229 36.2031 106.75 34.3395 106.75 31.7439V23.6242C106.75 22.271 106.639 21.3836 106.417 20.962C106.329 20.8289 106.107 20.6958 105.752 20.5627C105.419 20.4296 105.064 20.3187 104.687 20.2299C104.31 20.1412 104.021 20.0968 103.822 20.0968C103.733 20.0968 103.677 19.9415 103.655 19.631C103.655 19.3204 103.689 19.1207 103.755 19.032C104.953 19.1207 105.896 19.1873 106.584 19.2316C107.294 19.2538 107.748 19.2649 107.948 19.2649C108.236 19.2649 108.558 19.2538 108.913 19.2316C109.29 19.2094 109.712 19.1762 110.178 19.1318C111.087 19.0652 111.653 19.032 111.875 19.032C111.897 19.1207 111.908 19.2094 111.908 19.2982C111.93 19.3647 111.941 19.4535 111.941 19.5644C111.941 19.9194 111.897 20.0968 111.808 20.0968C111.609 20.0968 111.32 20.1412 110.943 20.2299C110.566 20.2965 110.2 20.3963 109.845 20.5294C109.49 20.6626 109.246 20.8289 109.113 21.0286C108.869 21.6276 108.747 22.5483 108.747 23.7906V31.6108C108.747 35.0716 107.937 37.5453 106.317 39.0316C105.541 39.7637 104.654 40.2962 103.655 40.629C102.679 40.9617 101.559 41.1281 100.294 41.1281Z" fill="#173A01"/>
<path d="M64.1151 41.1614C64.0486 41.0948 64.0153 40.9174 64.0153 40.629C64.0153 40.2518 64.0486 40.0632 64.1151 40.0632C64.3148 40.0632 64.5699 40.03 64.8805 39.9634C65.2133 39.8969 65.5239 39.8081 65.8123 39.6972C66.1229 39.5863 66.3003 39.4643 66.3447 39.3311C66.5 38.8874 66.5776 37.878 66.5776 36.3029V23.7241C66.5776 22.3708 66.5 21.4612 66.3447 20.9953C66.3003 20.8178 66.1339 20.6736 65.8455 20.5627C65.5793 20.4296 65.2687 20.3298 64.9138 20.2632C64.581 20.1967 64.3037 20.1634 64.0818 20.1634C63.9931 20.1634 63.9487 19.997 63.9487 19.6642C63.9487 19.3536 63.9931 19.154 64.0818 19.0652C65.546 19.1318 67.0213 19.1651 68.5077 19.1651H74.2647C76.0617 19.1651 77.6701 19.4535 79.0899 20.0303C80.5319 20.5849 81.741 21.3614 82.7172 22.3597C83.7155 23.358 84.4698 24.5005 84.98 25.7873C85.5125 27.074 85.7787 28.4384 85.7787 29.8804C85.7787 32.0101 85.3128 33.9291 84.381 35.6374C83.4714 37.3234 82.1514 38.6656 80.421 39.6639C78.6906 40.6622 76.6274 41.1614 74.2314 41.1614C74.0096 41.1614 73.6657 41.1503 73.1998 41.1281C72.7561 41.1281 72.1904 41.117 71.5027 41.0948C70.815 41.0727 70.2271 41.0505 69.739 41.0283C69.2509 41.0061 68.8516 41.0061 68.541 41.0283L64.1151 41.1614ZM74.7639 39.4643C79.2674 39.4643 81.5192 36.2253 81.5192 29.7473C81.5192 28.0834 81.2419 26.5859 80.6872 25.2548C80.1548 23.9015 79.3672 22.8256 78.3245 22.0269C77.304 21.2283 76.0395 20.8289 74.5309 20.8289H74.3645C72.2348 20.8289 71.0368 21.0064 70.7706 21.3614C70.4822 21.7385 70.338 22.4263 70.338 23.4246V36.4693C70.338 37.6895 70.46 38.5103 70.704 38.9318C71.059 39.2868 72.4123 39.4643 74.7639 39.4643Z" fill="#173A01"/>
</svg>
