<svg width="44" height="35" viewBox="0 0 44 35" fill="none" xmlns="http://www.w3.org/2000/svg">
<g clip-path="url(#clip0_832_2784)">
<path d="M7.93162 34.2424V31.9979C7.93162 31.1374 7.40779 30.5764 6.50992 30.5764C6.06106 30.5764 5.57473 30.726 5.238 31.2124C4.97626 30.8008 4.60222 30.5764 4.04107 30.5764C3.66686 30.5764 3.29298 30.6885 2.99358 31.1001V30.6512H2.20801V34.2424H2.99358V32.2597C2.99358 31.6239 3.3303 31.3245 3.85413 31.3245C4.37762 31.3245 4.63971 31.6612 4.63971 32.2597V34.2424H5.42528V32.2597C5.42528 31.6239 5.79915 31.3245 6.28549 31.3245C6.80932 31.3245 7.07106 31.6612 7.07106 32.2597V34.2424H7.93162ZM19.5654 30.6512H18.2937V29.5664H17.5081V30.6512H16.7973V31.3618H17.5079V33.0079C17.5079 33.831 17.8447 34.3172 18.7425 34.3172C19.0793 34.3172 19.4531 34.205 19.7152 34.0554L19.4906 33.382C19.2662 33.5316 19.0044 33.5691 18.8173 33.5691C18.4433 33.5691 18.2937 33.3447 18.2937 32.9704V31.3618H19.5654V30.6512ZM26.2242 30.5762C25.7754 30.5762 25.4761 30.8008 25.289 31.1001V30.6512H24.5035V34.2424H25.289V32.2224C25.289 31.6239 25.5508 31.2872 26.0371 31.2872C26.1867 31.2872 26.3738 31.3247 26.5235 31.362L26.7479 30.6139C26.5983 30.5764 26.3738 30.5764 26.2242 30.5764M16.1614 30.9506C15.7872 30.6887 15.2635 30.5766 14.7024 30.5766C13.8047 30.5766 13.2062 31.0254 13.2062 31.7362C13.2062 32.3348 13.6551 32.6714 14.4406 32.7837L14.8147 32.8212C15.2262 32.8958 15.4506 33.0081 15.4506 33.1952C15.4506 33.457 15.1514 33.6441 14.6276 33.6441C14.1037 33.6441 13.6924 33.457 13.4305 33.27L13.0564 33.8685C13.4679 34.1677 14.0291 34.3173 14.5901 34.3173C15.6376 34.3173 16.2362 33.8312 16.2362 33.1577C16.2362 32.5218 15.7499 32.185 15.0016 32.0729L14.6276 32.0354C14.2908 31.9979 14.0291 31.9233 14.0291 31.6989C14.0291 31.437 14.2908 31.2873 14.7024 31.2873C15.1514 31.2873 15.6002 31.4743 15.8247 31.5866L16.1614 30.9506ZM37.0353 30.5766C36.5863 30.5766 36.2871 30.801 36.1 31.1002V30.6514H35.3144V34.2425H36.1V32.2225C36.1 31.6241 36.3619 31.2873 36.848 31.2873C36.9978 31.2873 37.1849 31.3248 37.3345 31.3622L37.559 30.6141C37.4094 30.5766 37.1849 30.5766 37.0353 30.5766ZM27.0098 32.447C27.0098 33.5318 27.7579 34.3173 28.9177 34.3173C29.4413 34.3173 29.8154 34.2052 30.1894 33.906L29.8154 33.27C29.5161 33.4944 29.2169 33.6066 28.8802 33.6066C28.2442 33.6066 27.7954 33.1577 27.7954 32.447C27.7954 31.7737 28.2442 31.3247 28.8802 31.2873C29.2169 31.2873 29.5161 31.3995 29.8154 31.6241L30.1894 30.9881C29.8154 30.6887 29.4413 30.5766 28.9177 30.5766C27.7579 30.5766 27.0098 31.3622 27.0098 32.447ZM34.2671 32.447V30.6514H33.4815V31.1002C33.2196 30.7637 32.8455 30.5766 32.3592 30.5766C31.3492 30.5766 30.5636 31.3622 30.5636 32.447C30.5636 33.5318 31.3492 34.3173 32.3592 34.3173C32.8829 34.3173 33.2571 34.1304 33.4815 33.7937V34.2425H34.2671V32.447ZM31.3865 32.447C31.3865 31.811 31.798 31.2873 32.4713 31.2873C33.1073 31.2873 33.5563 31.7737 33.5563 32.447C33.5563 33.0829 33.1073 33.6066 32.4713 33.6066C31.798 33.5691 31.3865 33.0829 31.3865 32.447ZM21.9971 30.5766C20.9496 30.5766 20.2014 31.3247 20.2014 32.447C20.2014 33.5693 20.9495 34.3173 22.0344 34.3173C22.5581 34.3173 23.0819 34.1677 23.4935 33.8312L23.1193 33.27C22.82 33.4944 22.446 33.6441 22.0719 33.6441C21.5856 33.6441 21.0993 33.4196 20.987 32.7835H23.6431V32.4845C23.6806 31.3247 23.0073 30.5766 21.9971 30.5766ZM21.997 31.2499C22.4831 31.2499 22.82 31.5493 22.8947 32.1104H21.0243C21.0991 31.6241 21.4358 31.2499 21.997 31.2499ZM41.4867 32.447V29.2299H40.7011V31.1002C40.4392 30.7637 40.0651 30.5766 39.5788 30.5766C38.5688 30.5766 37.7832 31.3622 37.7832 32.447C37.7832 33.5318 38.5688 34.3173 39.5788 34.3173C40.1026 34.3173 40.4767 34.1304 40.7011 33.7937V34.2425H41.4867V32.447ZM38.6063 32.447C38.6063 31.811 39.0176 31.2873 39.6911 31.2873C40.327 31.2873 40.7759 31.7737 40.7759 32.447C40.7759 33.0829 40.327 33.6066 39.6911 33.6066C39.0176 33.5691 38.6063 33.0829 38.6063 32.447ZM12.3455 32.447V30.6514H11.5599V31.1002C11.298 30.7637 10.924 30.5766 10.4376 30.5766C9.42761 30.5766 8.64204 31.3622 8.64204 32.447C8.64204 33.5318 9.42761 34.3173 10.4376 34.3173C10.9614 34.3173 11.3355 34.1304 11.5599 33.7937V34.2425H12.3455V32.447ZM9.42761 32.447C9.42761 31.811 9.83914 31.2873 10.5124 31.2873C11.1484 31.2873 11.5974 31.7737 11.5974 32.447C11.5974 33.0829 11.1484 33.6066 10.5124 33.6066C9.83914 33.5691 9.42761 33.0829 9.42761 32.447Z" fill="white"/>
<path d="M15.8984 3.38025H27.682V24.5534H15.8984V3.38025Z" fill="#FF5F00"/>
<path d="M16.6468 13.967C16.6468 9.66513 18.6668 5.8494 21.7716 3.38038C19.4899 1.58481 16.6095 0.5 13.4672 0.5C6.02267 0.5 0 6.52267 0 13.967C0 21.4114 6.02267 27.4341 13.467 27.4341C16.6093 27.4341 19.4897 26.3493 21.7716 24.5535C18.6668 22.122 16.6468 18.2689 16.6468 13.967Z" fill="#EB001B"/>
<path d="M43.5812 13.9669C43.5812 21.4111 37.5585 27.434 30.1142 27.434C26.9719 27.434 24.0915 26.3492 21.8096 24.5534C24.9519 22.0846 26.9345 18.2688 26.9345 13.9669C26.9345 9.66501 24.9144 5.84927 21.8096 3.38026C24.0913 1.58468 26.9719 0.499878 30.1142 0.499878C37.5585 0.499878 43.5812 6.56004 43.5812 13.9669Z" fill="#F79E1B"/>
</g>
<defs>
<clipPath id="clip0_832_2784">
<rect width="43.624" height="33.9109" fill="white" transform="translate(0 0.5)"/>
</clipPath>
</defs>
</svg>
