<svg width="124" height="39" viewBox="0 0 124 39" fill="none" xmlns="http://www.w3.org/2000/svg">
<path d="M33.7955 22.7148C33.7413 24.751 33.3184 26.7604 32.5474 28.6457C29.3634 29.1272 26.3205 30.2893 23.6262 32.053L23.3765 32.2177C20.8516 33.9185 18.6959 36.1115 17.0388 38.6653L16.8266 38.9998C16.7992 38.9599 16.7717 38.9149 16.7467 38.8725C15.0964 36.2641 12.9293 34.0214 10.379 32.2826C10.2967 32.2277 10.2168 32.1703 10.1294 32.1179C7.45788 30.3445 4.43544 29.1679 1.26805 28.6682C0.485732 26.7777 0.0559707 24.76 0 22.7148L0.164747 22.7323C3.7285 23.1121 7.14826 24.345 10.1344 26.3268C10.2168 26.3792 10.2967 26.4366 10.384 26.4915C12.9343 28.2303 15.1014 30.473 16.7517 33.0814C16.7767 33.1263 16.8041 33.1688 16.8316 33.2112L17.0438 32.8742C18.7017 30.3197 20.8572 28.1252 23.3815 26.4216L23.6311 26.2594C26.6271 24.2954 30.0518 23.0814 33.6158 22.7198L33.7955 22.7148Z" fill="white"/>
<path d="M33.5902 20.4211C33.5902 20.3437 33.5752 20.2663 33.5678 20.1889V20.1715C33.2396 17.3026 32.1764 14.5671 30.481 12.2297C28.7855 9.89225 26.5153 8.03217 23.8901 6.82949L23.6131 6.70469L23.4758 6.64727C23.3809 6.60484 23.2861 6.5674 23.1887 6.52746C23.0914 6.48752 22.9591 6.4351 22.8418 6.39017L22.6695 6.32776L22.3525 6.21793L21.9656 6.08813C20.4639 5.61397 18.9022 5.35676 17.3277 5.32431V4.05876C17.6258 4.06716 17.9226 4.01713 18.2014 3.91148C18.5074 3.79578 18.7853 3.61616 19.0164 3.38458C19.2476 3.15301 19.4267 2.87481 19.5418 2.56855C19.3407 2.74105 19.1109 2.87705 18.8629 2.97043C18.4476 3.12956 17.9952 3.16512 17.5602 3.07282C17.1252 2.98051 16.7262 2.76429 16.4113 2.45023C16.0965 2.13618 15.8793 1.73772 15.7859 1.30294C15.6925 0.868167 15.7269 0.415649 15.885 0C15.58 0.259723 15.3481 0.594459 15.212 0.971185C15.0759 1.34791 15.0404 1.75361 15.1089 2.14825C15.1774 2.5429 15.3477 2.91285 15.6029 3.22162C15.858 3.53039 16.1893 3.7673 16.5639 3.90899V5.3293C15.007 5.36185 13.4624 5.61395 11.976 6.07815L11.7264 6.15553L11.4293 6.25787L11.337 6.29032L11.0499 6.39516C10.9401 6.4351 10.8352 6.47753 10.7279 6.51997L10.6979 6.53245L10.6031 6.57239C10.5057 6.60983 10.4109 6.65227 10.3135 6.6922C10.2162 6.73214 10.0639 6.79954 9.94909 6.85695C7.33433 8.06638 5.07477 9.92831 3.38776 12.2636C1.70075 14.599 0.643055 17.3291 0.316411 20.1914V20.2189L0.293945 20.4685V20.6982H0.558538H0.638415H0.795673C3.95873 20.7726 7.05899 21.5964 9.84176 23.102L9.91165 23.1394L9.96157 23.1669L10.039 23.2093C10.0595 23.2229 10.0812 23.2346 10.1039 23.2442L10.1338 23.2592L10.2811 23.3441L10.3235 23.369H10.311C10.311 23.369 14.9214 26.7389 16.5514 29.1102L16.5714 29.1427V29.1576C16.5964 29.1976 16.6238 29.235 16.6513 29.275C16.6787 29.3149 16.6787 29.3174 16.6962 29.3449L16.9209 29.6893L17.1255 29.3349C17.1324 29.3223 17.1408 29.3105 17.1505 29.2999V29.28C17.1855 29.225 17.2204 29.1726 17.2603 29.1202C18.879 26.7442 21.0119 24.7632 23.5007 23.3241H23.5382L23.5906 23.2767C23.613 23.2611 23.6363 23.2469 23.6605 23.2343L23.7179 23.2018L23.7603 23.1843L23.7778 23.2343C23.7778 23.1619 23.7928 23.1569 23.8028 23.1519L23.95 23.082C23.9633 23.0703 23.9785 23.061 23.995 23.0545C26.7863 21.5473 29.8947 20.7218 33.066 20.6457H33.3606H33.5378V20.4261L33.5902 20.4211ZM16.5639 27.8596C14.9329 25.7334 12.8904 23.9574 10.5582 22.6377L10.5207 22.5977C10.7054 17.7227 13.3214 13.8113 16.5639 13.5267V27.8596ZM23.321 22.6377C20.9992 23.9672 18.9632 25.7427 17.3302 27.8621V13.5242C20.5752 13.8113 23.1887 17.7277 23.3684 22.6002L23.321 22.6377Z" fill="#F38708"/>
<path d="M123.114 26.9042C121.584 26.9042 120.377 26.5511 119.495 25.8449C118.98 25.4476 118.501 24.9842 118.06 24.4545C117.633 23.9249 117.258 23.4099 116.935 22.9097C116.611 22.3947 116.346 21.9754 116.14 21.6517C115.875 21.2692 115.618 20.9234 115.368 20.6145C115.132 20.3055 114.779 20.151 114.308 20.151C114.073 20.151 113.955 20.2761 113.955 20.5262V23.638C113.955 24.4913 114.014 25.1166 114.132 25.5138C114.161 25.6315 114.286 25.7345 114.507 25.8228C114.742 25.9111 114.992 25.9847 115.257 26.0435C115.522 26.0876 115.721 26.1097 115.853 26.1097C115.912 26.1097 115.941 26.2348 115.941 26.4849C115.941 26.6173 115.927 26.7424 115.897 26.8601C114.294 26.7718 113.249 26.7277 112.763 26.7277C112.366 26.7277 111.917 26.735 111.417 26.7497C110.932 26.7644 110.542 26.7865 110.248 26.8159L109.806 26.8601C109.762 26.7865 109.74 26.6541 109.74 26.4628C109.74 26.2274 109.762 26.1097 109.806 26.1097C109.939 26.1097 110.115 26.0876 110.336 26.0435C110.557 25.9994 110.763 25.9405 110.954 25.867C111.16 25.7934 111.277 25.7125 111.307 25.6242C111.395 25.3594 111.439 24.6899 111.439 23.6159V15.2737C111.439 14.4351 111.395 13.8318 111.307 13.464C111.277 13.3757 111.16 13.2948 110.954 13.2212C110.763 13.133 110.549 13.0594 110.314 13.0005C110.093 12.9417 109.924 12.9123 109.806 12.9123C109.747 12.9123 109.718 12.8019 109.718 12.5812C109.718 12.3605 109.747 12.2281 109.806 12.184C111.38 12.2281 112.359 12.2502 112.741 12.2502C113.462 12.2355 114.021 12.2281 114.419 12.2281C114.816 12.2281 115.118 12.2281 115.324 12.2281C115.529 12.2134 115.706 12.206 115.853 12.206C116.633 12.206 117.398 12.3458 118.148 12.6254C118.899 12.9049 119.517 13.3316 120.002 13.9054C120.502 14.4792 120.753 15.2075 120.753 16.0902C120.753 16.6199 120.635 17.1349 120.399 17.6351C120.164 18.1353 119.848 18.5767 119.45 18.9593C119.053 19.3418 118.604 19.6361 118.104 19.842C117.987 19.8862 117.957 19.9597 118.016 20.0627C118.428 20.7984 118.84 21.4825 119.252 22.1152C119.664 22.7331 120.076 23.2996 120.488 23.8145C121.003 24.4472 121.554 24.9915 122.143 25.4476C122.746 25.889 123.298 26.1097 123.798 26.1097C123.857 26.1833 123.886 26.301 123.886 26.4628C123.886 26.6247 123.857 26.7571 123.798 26.8601C123.71 26.8748 123.607 26.8821 123.489 26.8821C123.386 26.8969 123.261 26.9042 123.114 26.9042ZM115.368 19.0917H115.941C116.486 19.0917 116.971 18.8342 117.398 18.3192C117.839 17.8043 118.06 17.1349 118.06 16.3109C118.06 14.31 117.207 13.3095 115.5 13.3095C114.867 13.3095 114.441 13.361 114.22 13.464C114.043 13.5376 113.955 14.3026 113.955 15.7592V18.2972C113.955 18.6209 114.08 18.8342 114.33 18.9372C114.581 19.0402 114.926 19.0917 115.368 19.0917Z" fill="white"/>
<path d="M92.4553 26.838C92.3964 26.7792 92.367 26.6688 92.367 26.507C92.367 26.2421 92.3817 26.1097 92.4112 26.1097C92.5289 26.1097 92.6981 26.0803 92.9187 26.0214C93.1542 25.9626 93.3748 25.889 93.5808 25.8007C93.8015 25.6978 93.9413 25.5948 94.0001 25.4918C94.1473 25.2711 94.287 25.021 94.4195 24.7414C94.5519 24.4472 94.6917 24.1235 94.8388 23.7704L98.9437 13.8392C99.2968 12.9417 99.569 12.412 99.7602 12.2502C99.8632 12.1472 99.9883 12.0957 100.135 12.0957C100.238 12.0957 100.327 12.1325 100.4 12.206L105.035 23.7704C105.153 24.0499 105.263 24.3295 105.366 24.609C105.484 24.8738 105.594 25.1313 105.697 25.3814C105.756 25.5286 105.888 25.661 106.094 25.7787C106.3 25.8817 106.513 25.9626 106.734 26.0214C106.955 26.0803 107.124 26.1097 107.242 26.1097C107.301 26.1097 107.33 26.2421 107.33 26.507C107.33 26.6688 107.315 26.7792 107.286 26.838L104.505 26.7056L101.636 26.838C101.577 26.7792 101.548 26.6394 101.548 26.4187C101.548 26.2127 101.577 26.1097 101.636 26.1097C101.813 26.1097 102.055 26.0656 102.364 25.9773C102.673 25.889 102.857 25.786 102.916 25.6683C102.96 25.5801 102.982 25.4844 102.982 25.3814C102.982 25.2343 102.946 25.0357 102.872 24.7856C102.798 24.5354 102.695 24.2265 102.563 23.8586L101.791 21.8062C101.732 21.7473 101.68 21.7179 101.636 21.7179C101.401 21.7032 101.121 21.6959 100.797 21.6959C100.489 21.6811 100.135 21.6738 99.7382 21.6738C98.9437 21.6738 98.105 21.6959 97.2223 21.74C97.134 21.74 97.0898 21.7694 97.0898 21.8283L96.2512 23.8807C96.1041 24.2485 95.9937 24.5575 95.9202 24.8076C95.8613 25.043 95.8319 25.2122 95.8319 25.3152C95.8319 25.4918 95.9128 25.6389 96.0747 25.7566C96.1629 25.8155 96.2954 25.8743 96.4719 25.9332C96.6632 25.9773 96.8544 26.0214 97.0457 26.0656C97.237 26.095 97.3694 26.1097 97.443 26.1097C97.4871 26.1244 97.5092 26.2274 97.5092 26.4187C97.5092 26.5217 97.5018 26.61 97.4871 26.6835C97.4871 26.7424 97.4797 26.7939 97.465 26.838C96.9207 26.8086 96.4719 26.7792 96.1188 26.7497C95.7804 26.7203 95.4641 26.7056 95.1698 26.7056C94.8756 26.7056 94.5224 26.7129 94.1105 26.7277C93.6985 26.7424 93.1468 26.7792 92.4553 26.838ZM99.3409 20.482C99.8706 20.482 100.474 20.46 101.151 20.4158L101.195 20.3276L99.5175 15.9137L97.7078 20.3276C97.7078 20.3864 97.7225 20.4158 97.7519 20.4158C98.2669 20.46 98.7965 20.482 99.3409 20.482Z" fill="white"/>
<path d="M89.4936 26.9042C87.9635 26.9042 86.757 26.5511 85.8742 25.8449C85.3593 25.4476 84.8811 24.9842 84.4397 24.4545C84.013 23.9249 83.6379 23.4099 83.3142 22.9097C82.9905 22.3947 82.7257 21.9754 82.5197 21.6517C82.2549 21.2692 81.9974 20.9234 81.7473 20.6145C81.5119 20.3055 81.1587 20.151 80.6879 20.151C80.4525 20.151 80.3348 20.2761 80.3348 20.5262V23.638C80.3348 24.4913 80.3937 25.1166 80.5114 25.5138C80.5408 25.6315 80.6659 25.7345 80.8866 25.8228C81.122 25.9111 81.3721 25.9847 81.6369 26.0435C81.9017 26.0876 82.1004 26.1097 82.2328 26.1097C82.2916 26.1097 82.3211 26.2348 82.3211 26.4849C82.3211 26.6173 82.3064 26.7424 82.2769 26.8601C80.6732 26.7718 79.6286 26.7277 79.1431 26.7277C78.7458 26.7277 78.2971 26.735 77.7969 26.7497C77.3113 26.7644 76.9214 26.7865 76.6272 26.8159L76.1858 26.8601C76.1417 26.7865 76.1196 26.6541 76.1196 26.4628C76.1196 26.2274 76.1417 26.1097 76.1858 26.1097C76.3182 26.1097 76.4948 26.0876 76.7155 26.0435C76.9362 25.9994 77.1421 25.9405 77.3334 25.867C77.5394 25.7934 77.6571 25.7125 77.6865 25.6242C77.7748 25.3594 77.8189 24.6899 77.8189 23.6159V15.2737C77.8189 14.4351 77.7748 13.8318 77.6865 13.464C77.6571 13.3757 77.5394 13.2948 77.3334 13.2212C77.1421 13.133 76.9288 13.0594 76.6934 13.0005C76.4727 12.9417 76.3035 12.9123 76.1858 12.9123C76.1269 12.9123 76.0975 12.8019 76.0975 12.5812C76.0975 12.3605 76.1269 12.2281 76.1858 12.184C77.7601 12.2281 78.7385 12.2502 79.121 12.2502C79.8419 12.2355 80.401 12.2281 80.7983 12.2281C81.1955 12.2281 81.4971 12.2281 81.7031 12.2281C81.9091 12.2134 82.0857 12.206 82.2328 12.206C83.0126 12.206 83.7776 12.3458 84.528 12.6254C85.2784 12.9049 85.8963 13.3316 86.3818 13.9054C86.8821 14.4792 87.1322 15.2075 87.1322 16.0902C87.1322 16.6199 87.0145 17.1349 86.7791 17.6351C86.5437 18.1353 86.2273 18.5767 85.8301 18.9593C85.4328 19.3418 84.9841 19.6361 84.4839 19.842C84.3662 19.8862 84.3367 19.9597 84.3956 20.0627C84.8075 20.7984 85.2195 21.4825 85.6315 22.1152C86.0434 22.7331 86.4554 23.2996 86.8673 23.8145C87.3823 24.4472 87.934 24.9915 88.5225 25.4476C89.1258 25.889 89.6775 26.1097 90.1777 26.1097C90.2366 26.1833 90.266 26.301 90.266 26.4628C90.266 26.6247 90.2366 26.7571 90.1777 26.8601C90.0895 26.8748 89.9865 26.8821 89.8688 26.8821C89.7658 26.8969 89.6407 26.9042 89.4936 26.9042ZM81.7473 19.0917H82.3211C82.8654 19.0917 83.351 18.8342 83.7776 18.3192C84.219 17.8043 84.4397 17.1349 84.4397 16.3109C84.4397 14.31 83.5864 13.3095 81.8797 13.3095C81.247 13.3095 80.8204 13.361 80.5997 13.464C80.4231 13.5376 80.3348 14.3026 80.3348 15.7592V18.2972C80.3348 18.6209 80.4599 18.8342 80.71 18.9372C80.9601 19.0402 81.3059 19.0917 81.7473 19.0917Z" fill="white"/>
<path d="M66.1178 26.8159C64.3522 26.8159 62.9619 26.2863 61.9467 25.2269C60.9315 24.1529 60.4239 22.4315 60.4239 20.0627V15.2516C60.4239 14.3247 60.365 13.7068 60.2473 13.3978C60.2179 13.3095 60.1076 13.2286 59.9163 13.155C59.7397 13.0815 59.5411 13.0226 59.3204 12.9785C59.1144 12.9196 58.9526 12.8902 58.8349 12.8902C58.7761 12.8902 58.7466 12.7799 58.7466 12.5592C58.7466 12.3385 58.7687 12.206 58.8128 12.1619L61.7481 12.2943C62.0276 12.2943 62.9692 12.2502 64.5729 12.1619C64.5876 12.2208 64.595 12.2796 64.595 12.3385C64.6097 12.3973 64.6171 12.4562 64.6171 12.515C64.6171 12.7651 64.5876 12.8902 64.5288 12.8902C64.4405 12.8902 64.2787 12.9196 64.0433 12.9785C63.8226 13.0226 63.6166 13.0815 63.4253 13.155C63.2341 13.2286 63.1311 13.3095 63.1163 13.3978C63.0575 13.6185 63.0134 13.8907 62.9839 14.2144C62.9545 14.538 62.9398 14.9132 62.9398 15.3399V20.4158C62.9398 21.9313 63.2635 23.1451 63.9108 24.0573C64.5729 24.9548 65.4851 25.4035 66.6474 25.4035C67.7803 25.4035 68.6852 25.0357 69.362 24.3C70.0535 23.5497 70.3992 22.3138 70.3992 20.5924V15.2075C70.3992 14.31 70.3257 13.7215 70.1785 13.4419C70.1197 13.3537 69.9725 13.2654 69.7371 13.1771C69.5164 13.0888 69.281 13.0153 69.0309 12.9564C68.7808 12.8976 68.5895 12.8681 68.4571 12.8681C68.3983 12.8681 68.3615 12.7651 68.3468 12.5592C68.3468 12.3532 68.3688 12.2208 68.413 12.1619C69.2075 12.2208 69.8328 12.2649 70.2889 12.2943C70.7597 12.309 71.0613 12.3164 71.1937 12.3164C71.385 12.3164 71.5983 12.309 71.8337 12.2943C72.0838 12.2796 72.3634 12.2575 72.6724 12.2281C73.2756 12.184 73.6508 12.1619 73.7979 12.1619C73.8126 12.2208 73.82 12.2796 73.82 12.3385C73.8347 12.3826 73.842 12.4415 73.842 12.515C73.842 12.7504 73.8126 12.8681 73.7538 12.8681C73.6213 12.8681 73.4301 12.8976 73.18 12.9564C72.9298 13.0005 72.6871 13.0668 72.4517 13.155C72.2163 13.2433 72.0544 13.3537 71.9661 13.4861C71.8043 13.8833 71.7234 14.4939 71.7234 15.3178V20.5041C71.7234 22.7993 71.1864 24.4398 70.1123 25.4256C69.5974 25.9111 69.0089 26.2642 68.3468 26.4849C67.6994 26.7056 66.9564 26.8159 66.1178 26.8159Z" fill="white"/>
<path d="M42.124 26.838C42.0799 26.7939 42.0578 26.6762 42.0578 26.4849C42.0578 26.2348 42.0799 26.1097 42.124 26.1097C42.2564 26.1097 42.4256 26.0876 42.6316 26.0435C42.8523 25.9994 43.0583 25.9405 43.2496 25.867C43.4555 25.7934 43.5732 25.7125 43.6027 25.6242C43.7057 25.3299 43.7571 24.6605 43.7571 23.6159V15.2737C43.7571 14.3762 43.7057 13.773 43.6027 13.464C43.5732 13.3463 43.4629 13.2507 43.2716 13.1771C43.0951 13.0888 42.8891 13.0226 42.6537 12.9785C42.433 12.9343 42.2491 12.9123 42.1019 12.9123C42.0431 12.9123 42.0137 12.8019 42.0137 12.5812C42.0137 12.3752 42.0431 12.2428 42.1019 12.184C43.073 12.2281 44.0514 12.2502 45.0372 12.2502H48.8552C50.0469 12.2502 51.1136 12.4415 52.0552 12.824C53.0115 13.1918 53.8134 13.7068 54.4608 14.3688C55.1228 15.0309 55.6231 15.7886 55.9615 16.642C56.3146 17.4953 56.4911 18.4002 56.4911 19.3565C56.4911 20.7689 56.1822 22.0416 55.5642 23.1745C54.961 24.2927 54.0856 25.1828 52.938 25.8449C51.7904 26.507 50.4221 26.838 48.8331 26.838C48.686 26.838 48.4579 26.8306 48.1489 26.8159C47.8547 26.8159 47.4795 26.8086 47.0234 26.7939C46.5673 26.7792 46.1774 26.7644 45.8537 26.7497C45.53 26.735 45.2652 26.735 45.0592 26.7497L42.124 26.838ZM49.1862 25.7125C52.1729 25.7125 53.6663 23.5644 53.6663 19.2682C53.6663 18.1648 53.4824 17.1716 53.1145 16.2889C52.7614 15.3914 52.2391 14.6778 51.5476 14.1481C50.8708 13.6185 50.0322 13.3537 49.0317 13.3537H48.9214C47.5089 13.3537 46.7144 13.4714 46.5379 13.7068C46.3466 13.9569 46.251 14.413 46.251 15.0751V23.7262C46.251 24.5354 46.3319 25.0798 46.4937 25.3594C46.7291 25.5948 47.6266 25.7125 49.1862 25.7125Z" fill="white"/>
</svg>
