<svg width="58" height="20" viewBox="0 0 58 20" fill="none" xmlns="http://www.w3.org/2000/svg">
<g clip-path="url(#clip0_832_2770)">
<path d="M29.719 6.43167C29.6862 9.01665 32.0227 10.4591 33.7828 11.3168C35.5911 12.1967 36.1985 12.761 36.1913 13.548C36.1778 14.7523 34.7489 15.2838 33.4117 15.3045C31.0788 15.3406 29.7223 14.6746 28.644 14.1709L27.8036 18.1034C28.8855 18.6019 30.8889 19.0367 32.9664 19.0558C37.8429 19.0558 41.0333 16.6486 41.0506 12.9163C41.0697 8.17961 34.4988 7.91743 34.5437 5.80024C34.5592 5.15826 35.1718 4.47318 36.5141 4.29899C37.1785 4.211 39.0127 4.14366 41.0921 5.10124L41.9083 1.2965C40.79 0.889313 39.3527 0.499411 37.5633 0.499411C32.9733 0.499411 29.745 2.93938 29.719 6.43167ZM49.7508 0.827135C48.8603 0.827135 48.1099 1.34656 47.775 2.14364L40.8091 18.7763H45.6821L46.6518 16.0964H52.6065L53.169 18.7763H57.464L53.716 0.827135H49.7508ZM50.4325 5.67588L51.8388 12.416H47.9874L50.4325 5.67588ZM23.8107 0.82736L19.9696 18.7761H24.6132L28.4525 0.82691L23.8107 0.82736ZM16.9413 0.82736L12.1081 13.0441L10.1529 2.65633C9.92354 1.49673 9.01758 0.827135 8.01151 0.827135H0.110663L0 1.34835C1.62201 1.70032 3.4649 2.268 4.58141 2.87541C5.26469 3.24646 5.45953 3.57082 5.684 4.45253L9.38706 18.7763H14.2942L21.8175 0.827135L16.9413 0.82736Z" fill="white"/>
</g>
<defs>
<clipPath id="clip0_832_2770">
<rect width="57.464" height="18.6309" fill="white" transform="translate(0 0.5)"/>
</clipPath>
</defs>
</svg>
