<svg width="24" height="25" viewBox="0 0 24 25" fill="none" xmlns="http://www.w3.org/2000/svg">
<path d="M9.99844 2.69995C9.99844 2.14767 9.55072 1.69995 8.99844 1.69995C8.44615 1.69995 7.99844 2.14767 7.99844 2.69995H9.99844ZM7.99844 21.9C7.99844 22.4522 8.44615 22.9 8.99844 22.9C9.55072 22.9 9.99844 22.4522 9.99844 21.9H7.99844ZM5.99844 3.69995H17.9984V1.69995H5.99844V3.69995ZM20.5984 6.29995V18.3H22.5984V6.29995H20.5984ZM17.9984 20.9H5.99844V22.9H17.9984V20.9ZM3.39844 18.3V6.29995H1.39844V18.3H3.39844ZM5.99844 20.9C4.5625 20.9 3.39844 19.7359 3.39844 18.3H1.39844C1.39844 20.8405 3.45793 22.9 5.99844 22.9V20.9ZM20.5984 18.3C20.5984 19.7359 19.4344 20.9 17.9984 20.9V22.9C20.5389 22.9 22.5984 20.8405 22.5984 18.3H20.5984ZM17.9984 3.69995C19.4344 3.69995 20.5984 4.86401 20.5984 6.29995H22.5984C22.5984 3.75944 20.5389 1.69995 17.9984 1.69995V3.69995ZM5.99844 1.69995C3.45793 1.69995 1.39844 3.75944 1.39844 6.29995H3.39844C3.39844 4.86401 4.5625 3.69995 5.99844 3.69995V1.69995ZM7.99844 2.69995V21.9H9.99844V2.69995H7.99844ZM2.99844 10.3H20.9984V8.29995H2.99844V10.3Z" fill="#F38708"/>
</svg>
