<svg width="36" height="37" viewBox="0 0 36 37" fill="none" xmlns="http://www.w3.org/2000/svg">
<rect x="0.5" y="1.1001" width="35" height="35" rx="17.5" fill="white"/>
<rect x="0.5" y="1.1001" width="35" height="35" rx="17.5" stroke="#E6E9F5"/>
<path d="M15 27.7303C15.7961 28.3333 16.8475 28.7 18 28.7C19.1525 28.7 20.2039 28.3333 21 27.7303M9.57109 24.6272C9.09677 24.6272 8.83186 23.9207 9.11877 23.5282C9.78453 22.6174 10.4271 21.2815 10.4271 19.6728L10.4546 17.3418C10.4546 13.0109 13.8328 9.5 18 9.5C22.2286 9.5 25.6566 13.0626 25.6566 17.4573L25.6291 19.6728C25.6291 21.2925 26.2495 22.6357 26.8882 23.5469C27.164 23.9404 26.8984 24.6272 26.43 24.6272H9.57109Z" stroke="#F38708" stroke-width="1.5" stroke-linecap="round" stroke-linejoin="round"/>
</svg>
