<svg width="20" height="21" viewBox="0 0 20 21" fill="none" xmlns="http://www.w3.org/2000/svg">
<path d="M2 4.6001H18M8 14.6001V8.6001M12 14.6001V8.6001M14 18.6001H6C4.89543 18.6001 4 17.7047 4 16.6001V5.6001C4 5.04781 4.44771 4.6001 5 4.6001H15C15.5523 4.6001 16 5.04781 16 5.6001V16.6001C16 17.7047 15.1046 18.6001 14 18.6001ZM8 4.6001H12C12.5523 4.6001 13 4.15238 13 3.6001V2.6001C13 2.04781 12.5523 1.6001 12 1.6001H8C7.44771 1.6001 7 2.04781 7 2.6001V3.6001C7 4.15238 7.44771 4.6001 8 4.6001Z" stroke="#DD132B" stroke-width="1.5" stroke-linecap="round" stroke-linejoin="round"/>
</svg>
