<svg width="25" height="25" viewBox="0 0 25 25" fill="none" xmlns="http://www.w3.org/2000/svg">
<path d="M19.8625 13.9858C21.1298 14.9327 22.2625 17.3168 22.2625 18.7858C22.2625 19.2434 21.9286 19.6144 21.5167 19.6144H21.0625M16.2625 10.1046C17.0823 9.63036 17.6339 8.74394 17.6339 7.7287C17.6339 6.71345 17.0823 5.82704 16.2625 5.35279M3.80827 19.6144H16.9453C17.3572 19.6144 17.6911 19.2434 17.6911 18.7858C17.6911 15.9092 15.2878 13.5772 10.3768 13.5772C5.46577 13.5772 3.0625 15.9092 3.0625 18.7858C3.0625 19.2434 3.39639 19.6144 3.80827 19.6144ZM13.1196 7.7287C13.1196 9.24354 11.8916 10.4716 10.3768 10.4716C8.86195 10.4716 7.63393 9.24354 7.63393 7.7287C7.63393 6.21386 8.86195 4.98584 10.3768 4.98584C11.8916 4.98584 13.1196 6.21386 13.1196 7.7287Z" stroke="#F38708" stroke-width="1.36364" stroke-linecap="round"/>
</svg>
