<svg width="16" height="17" viewBox="0 0 16 17" fill="none" xmlns="http://www.w3.org/2000/svg">
<path d="M12.9793 6.67789V3.47789C12.9793 2.69241 12.3426 2.05566 11.5571 2.05566H3.02378C2.23831 2.05566 1.60156 2.69242 1.60156 3.47789V9.0431C1.60156 9.82857 2.23831 10.4653 3.02378 10.4653H4.13683V13.4334L7.10494 10.4653H7.29045M10.9619 12.2895L12.817 14.1446V12.2895H12.9793C13.7648 12.2895 14.4016 11.6527 14.4016 10.8673V8.45566C14.4016 7.67019 13.7648 7.03344 12.9793 7.03344H8.71267C7.9272 7.03344 7.29045 7.67019 7.29045 8.45566V10.8673C7.29045 11.6527 7.9272 12.2895 8.71267 12.2895H10.9619Z" stroke="#F38708" stroke-width="1.2" stroke-linecap="round" stroke-linejoin="round"/>
</svg>
