<svg width="24" height="24" viewBox="0 0 24 24" fill="none" xmlns="http://www.w3.org/2000/svg">
<path d="M8.70419 9.91755V13.6058C8.70419 15.4283 10.1816 16.9058 12.0042 16.9058C13.8267 16.9058 15.3042 15.4283 15.3042 13.6058V8.94696C15.3042 7.98209 14.522 7.1999 13.5571 7.1999C12.5923 7.1999 11.8101 7.98209 11.8101 8.94696V13.4117M6.60322 2.3999H17.4034C18.7289 2.3999 19.8035 3.47445 19.8034 4.79995L19.8032 19.2C19.8031 20.5254 18.7286 21.5999 17.4032 21.5999L6.60311 21.5998C5.27763 21.5998 4.20312 20.5253 4.20313 19.1998L4.20322 4.79989C4.20323 3.47441 5.27774 2.3999 6.60322 2.3999Z" stroke="#63767E" stroke-width="1.125" stroke-linecap="round"/>
</svg>
