<svg width="50" height="50" viewBox="0 0 50 50" fill="none" xmlns="http://www.w3.org/2000/svg">
<rect width="50" height="50" rx="25" fill="white"/>
<path d="M29.0439 20.2935C29.0439 22.9961 27.3276 24.9696 25.2104 24.9696C23.0931 24.9696 21.3768 22.9961 21.3768 20.2935C21.3768 17.5908 23.0931 15.3999 25.2104 15.3999C27.3276 15.3999 29.0439 17.5908 29.0439 20.2935Z" stroke="#4ACA67" stroke-width="1.5" stroke-linejoin="round"/>
<path d="M17.3986 28.8844C17.6734 28.3833 18.1778 28.0751 18.7232 28.0751H31.2737C31.8191 28.0751 32.3234 28.3833 32.5982 28.8844L34.3872 32.1468C34.9836 33.2342 34.2462 34.5999 33.0627 34.5999H16.9342C15.7507 34.5999 15.0133 33.2342 15.6096 32.1468L17.3986 28.8844Z" stroke="#4ACA67" stroke-width="1.5" stroke-linejoin="round"/>
</svg>
