<svg width="16" height="16" viewBox="0 0 16 16" fill="none" xmlns="http://www.w3.org/2000/svg">
<path d="M10.6986 4.86248C10.6986 6.66425 9.55433 7.97987 8.14285 7.97987C6.73136 7.97987 5.58713 6.66425 5.58713 4.86248C5.58713 3.06072 6.73136 1.6001 8.14285 1.6001C9.55433 1.6001 10.6986 3.06072 10.6986 4.86248Z" stroke="#D2D4E0" stroke-linejoin="round"/>
<path d="M2.93503 10.5898C3.11823 10.2557 3.45446 10.0503 3.81806 10.0503H12.1851C12.5487 10.0503 12.8849 10.2557 13.0681 10.5898L14.2608 12.7647C14.6583 13.4897 14.1667 14.4001 13.3777 14.4001H2.62539C1.8364 14.4001 1.34481 13.4897 1.74236 12.7647L2.93503 10.5898Z" stroke="#D2D4E0" stroke-linejoin="round"/>
</svg>
